<svg xmlns="http://www.w3.org/2000/svg" xmlns:xlink="http://www.w3.org/1999/xlink" width="1178.951" height="1165.905" viewBox="0 0 1178.951 1165.905">
  <defs>
    <linearGradient id="linear-gradient" x1="0.5" y1="-0.305" x2="0.5" y2="0.699" gradientUnits="objectBoundingBox">
      <stop offset="0" stop-color="#fff" stop-opacity="0.6"/>
      <stop offset="1" stop-color="#fff" stop-opacity="0.2"/>
    </linearGradient>
  </defs>
  <g id="组_26" data-name="组 26" transform="translate(-26.629 -48)">
    <path id="路径_30" data-name="路径 30" d="M-3181.555,878.682s50.582,10.068,74.2,55.766h-109.027V878.682Z" transform="translate(3783 -395)" fill="none" stroke="#fff" stroke-width="1"/>
    <path id="路径_11" data-name="路径 11" d="M-2979.252,1527.889H-2774.2v-518.5l56.077-2.491,138.448,38.6-46.986-512.938h-408.1l-640.295-66-29-2.491-45.675,2.491,30.7,190.86-35.323,204.558,11.561,115.092,38.157-8.479,100.311,44.941,34-8.479,135.076,54.862,52.572,60.458,33.917,11.362,51.7,65.534-8.584,45.7-56.312,260.573h248.079v24.345Z" transform="translate(3783 -395)" fill="none" stroke="#fff" stroke-width="4" stroke-dasharray="10"/>
    <path id="路径_25" data-name="路径 25" d="M-2869.713,969.011h-259.493l-188.339,134.68-113.395-138.482h-224.632l-.981-460.088h233.819V662.3h48.549a69.227,69.227,0,0,0-4.228,20.842h-44.321v145s.847,21.845,34.039,34.968l39.136,50.946,19.028-17.715V824.518" transform="translate(3783 -395)" fill="none" stroke="#fff" stroke-width="1"/>
    <path id="路径_12" data-name="路径 12" d="M-2871.486,897.455v71.556h245.466V897.455Z" transform="translate(3783 -395)" stroke="#fff" stroke-width="1"/>
    <path id="路径_14" data-name="路径 14" d="M-3211.059,577.947l443.9,5.953s98.693,19.829,104.535,114.628-65.624,129.315-98.693,135.929h-449.747s-81.572-6.5-114.641-84.438c0,0-28.55-72.753,18.409-124.232C-3272.017,573.537-3211.059,577.947-3211.059,577.947Z" transform="translate(3783 -395)" fill="rgba(20,121,0,0.2)" stroke="#fff" stroke-width="2"/>
    <path id="路径_15" data-name="路径 15" d="M-3077.509,889.223v40.651h114.964V889.223Z" transform="translate(3783 -395)" fill="rgba(255,255,255,0.2)" stroke="#fff" stroke-width="1"/>
    <g id="矩形_8" data-name="矩形 8" transform="translate(1161 411)" fill="none" stroke="#fff" stroke-width="1">
      <rect width="12" height="12" stroke="none"/>
      <rect x="0.5" y="0.5" width="11" height="11" fill="none"/>
    </g>
    <g id="矩形_9" data-name="矩形 9" transform="translate(1151 429)" fill="none" stroke="#fff" stroke-width="1">
      <rect width="12" height="12" stroke="none"/>
      <rect x="0.5" y="0.5" width="11" height="11" fill="none"/>
    </g>
    <g id="矩形_10" data-name="矩形 10" transform="translate(1138 445)" fill="none" stroke="#fff" stroke-width="1">
      <rect width="12" height="12" stroke="none"/>
      <rect x="0.5" y="0.5" width="11" height="11" fill="none"/>
    </g>
    <g id="矩形_11" data-name="矩形 11" transform="translate(1118 446)" fill="none" stroke="#fff" stroke-width="1">
      <rect width="12" height="12" stroke="none"/>
      <rect x="0.5" y="0.5" width="11" height="11" fill="none"/>
    </g>
    <path id="路径_16" data-name="路径 16" d="M-3344.095,1608.655v-79h227.79" transform="translate(3783 -395)" fill="none" stroke="#e6e600" stroke-width="1"/>
    <path id="路径_17" data-name="路径 17" d="M-3300.585,1608.655v-38.121s2.969-9.292,10.094-9.5,217.186,0,217.186,0v22.105l-14.751,25.516" transform="translate(3783 -395)" fill="none" stroke="#e6e600" stroke-width="1"/>
    <path id="路径_18" data-name="路径 18" d="M-3285.834,1608.655l-14.751-25.516v-22.105h215.46v47.621" transform="translate(4093 -395)" fill="none" stroke="#e6e600" stroke-width="1"/>
    <path id="路径_19" data-name="路径 19" d="M-3231.721,1210.472l1.521,244.691a28.637,28.637,0,0,0,24.577,13.279h366.517s13.147-4.249,19.47-16.54,3.363-31.47,3.363-31.47l.38-424.487h-297.994l-182.558,134.4Z" transform="translate(3783 -395)" fill="rgba(255,255,255,0.2)" stroke="#fff" stroke-width="1"/>
    <path id="路径_20" data-name="路径 20" d="M-2871.486,969.011h-257.72l-190.281,138.8-96.489-118.6c-9.153-9.153-10.81-18.024-35.508-18.024l-195.123-1.546s-33.461-9.5-32.156-44.725l5.022-338.524s-2.226-21.264,23.482-23.025" transform="translate(3783 -395)" fill="none" stroke="#fff" stroke-width="1"/>
    <path id="路径_21" data-name="路径 21" d="M-3674.9,467.773V517.3s-1.889,13.142,18.106,25.88" transform="translate(3783 -395)" fill="none" stroke="#e6e600" stroke-width="1"/>
    <path id="路径_22" data-name="路径 22" d="M-3704.01,467.773l-5.609,470.182s-4.109,25.438,21.525,37.179" transform="translate(3783 -395)" fill="none" stroke="#e6e600" stroke-width="1"/>
    <path id="路径_23" data-name="路径 23" d="M-3069.656,1524.442s5.672-27.4-25.087-27.4H-3214.03s-32.591-8.178-57.327-30.606-23.08-62.216-23.08-62.216V1192.217l-138.994-172.492s-23.237-22.915-52.638-22.564-155.573-.35-155.573-.35" transform="translate(3783 -395)" fill="none" stroke="#e6e600" stroke-width="1"/>
    <path id="路径_24" data-name="路径 24" d="M-3013.622,1511.784v18.554h37.2v-18.554Z" transform="translate(3783 -395)" fill="rgba(255,255,255,0.2)" stroke="#fff" stroke-width="1"/>
    <path id="路径_26" data-name="路径 26" d="M-2854.767,878.682s1.054,7.547-14.35,12.564a124.6,124.6,0,0,0-78.623,75.613" transform="translate(3783 -395)" fill="none" stroke="#fff" stroke-width="1"/>
    <path id="路径_27" data-name="路径 27" d="M-3181.555,878.682s73.293,15.425,85.914,89.027" transform="translate(3783 -395)" fill="none" stroke="#fff" stroke-width="1"/>
    <path id="路径_28" data-name="路径 28" d="M-3314.2,839.124v61.544s6.875,21.553,41.725,32.93V865.592a130.358,130.358,0,0,1-21.011-10.615A183.115,183.115,0,0,1-3314.2,839.124Z" transform="translate(3783 -394.976)" fill="none" stroke="#fff" stroke-width="1"/>
    <path id="路径_29" data-name="路径 29" d="M-3261.672,870.64v65.535h32.886V877.7a156.512,156.512,0,0,1-16.6-2.511A160.136,160.136,0,0,1-3261.672,870.64Z" transform="translate(3783 -396.75)" fill="none" stroke="#fff" stroke-width="1"/>
    <path id="路径_31" data-name="路径 31" d="M-3656.278,703.682H-3443v110.03" transform="translate(3783 -395)" fill="none" stroke="#fff" stroke-width="1"/>
    <path id="路径_32" data-name="路径 32" d="M-2838.881,1025.757h-49.348v72.507h-309.96l-12.325,9.387-193.172-237.435h-175.793V736.906h-64.874V958.988h216.27l203.207,247.21v235.168h67.535V1291.495h93.024v11.691h78.272v-11.691h93.325v149.872h53.837Z" transform="translate(3783 -395)" stroke="#fff" stroke-width="1"/>
    <path id="路径_33" data-name="路径 33" d="M-3486.848,736.906V870.052" transform="translate(3783 -395)" fill="none" stroke="#fff" stroke-width="1"/>
    <path id="路径_35" data-name="路径 35" d="M-2993.91,1511.3c0-17.539,22.539-16.222,22.539-16.222h145.39c40.413,0,43.111-29.437,43.111-29.437V1015.454s-.85-17.055,15.457-17.512,52.984,0,52.984,0l17.677,14.159" transform="translate(3783 -395)" fill="none" stroke="#e6e600" stroke-width="1"/>
    <path id="路径_13" data-name="路径 13" d="M-3385.078,528.682v43.8h67.732s-66.53,51.529-61.212,135.821,52.54,122.073,75.464,139.633c39.638,34.571,123.076,30.606,123.076,30.606h416.5s95.771-3.211,138.892-109.9c0,0,44.412-141.358-69.83-190.49h67V539.292Z" transform="translate(3783 -395)" fill="rgba(255,255,255,0.2)" stroke="#fff" stroke-width="2"/>
    <path id="路径_36" data-name="路径 36" d="M-2626.02,1031.311l43.453-13.271" transform="translate(3783 -395)" fill="none" stroke="#e6e600" stroke-width="1"/>
    <rect id="矩形_12" data-name="矩形 12" width="32" height="74" transform="matrix(0.602, 0.799, -0.799, 0.602, 530.72, 661.336)" fill="rgba(230,230,0,0.2)"/>
    <path id="路径_37" data-name="路径 37" d="M-3090.431,1098.083v-26.3s5.522-19.8,25.711-19.981h84.733s15.824-1.009,22.949,19.981v26.3" transform="translate(3783 -395)" fill="none" stroke="#fff" stroke-width="1"/>
    <rect id="矩形_13" data-name="矩形 13" width="44" height="77" transform="translate(296 342)" fill="url(#linear-gradient)"/>
    <path id="路径_38" data-name="路径 38" d="M-3360.808,1607.9V1503.754" transform="translate(3781.808 -394.256)" fill="none" stroke="#e6e600" stroke-width="2" stroke-dasharray="10"/>
    <g id="矩形_14" data-name="矩形 14" transform="translate(126 110)" fill="rgba(0,0,0,0.6)" stroke="#fff" stroke-width="1">
      <rect width="234" height="199" stroke="none"/>
      <rect x="0.5" y="0.5" width="233" height="198" fill="none"/>
    </g>
    <path id="路径_39" data-name="路径 39" d="M-2888.228,1098.264h-309.96l-12.322,9.2,62.4,77.423h259.877Z" transform="translate(3783 -395)" fill="rgba(255,255,255,0.2)" stroke="#fff" stroke-width="1"/>
    <path id="路径_40" data-name="路径 40" d="M-3046.357,1281.879h55.459v-96.991h-55.459Z" transform="translate(3777.893 -394.998)" stroke="#fff" stroke-width="1"/>
    <path id="路径_41" data-name="路径 41" d="M-2918.992,1184.89V1251h-75.146V1184.89Z" transform="translate(3781.132 -395)" fill="rgba(255,255,255,0.4)" stroke="#fff" stroke-width="1"/>
    <path id="路径_42" data-name="路径 42" d="M-2918.992,1184.89V1251h-75.146V1184.89Z" transform="translate(3650.527 -395)" fill="rgba(255,255,255,0.4)" stroke="#fff" stroke-width="1"/>
    <path id="路径_43" data-name="路径 43" d="M-3147.24,1098.082v86.807l-63.532-77.4" transform="translate(3783 -395)" fill="none" stroke="#fff" stroke-width="1"/>
    <g id="椭圆_2" data-name="椭圆 2" transform="matrix(0.848, -0.53, 0.53, 0.848, 596.295, 722.309)" fill="#444" stroke="#fff" stroke-width="1">
      <ellipse cx="10" cy="17" rx="10" ry="17" stroke="none"/>
      <ellipse cx="10" cy="17" rx="9.5" ry="16.5" fill="none"/>
    </g>
    <text id="教学区" transform="translate(709 982)" fill="#fff" font-size="36" font-family="HarmonyOS_Sans_SC_Medium, HarmonyOS Sans SC"><tspan x="0" y="0">教学区</tspan></text>
    <text id="实验教学区" transform="translate(444.565 637.633) rotate(50)" fill="#fff" font-size="36" font-family="HarmonyOS_Sans_SC_Medium, HarmonyOS Sans SC"><tspan x="0" y="0">实验教学区</tspan></text>
    <text id="女生宿舍_图书馆_一楼_" data-name="女生宿舍
图书馆（一楼）" transform="translate(243 515)" fill="#fff" font-size="24" font-family="HarmonyOS_Sans_SC_Light, HarmonyOS Sans SC"><tspan x="-48" y="0">女生宿舍</tspan><tspan font-size="16"><tspan x="-56" y="36">图书馆（一楼）</tspan></tspan></text>
    <text id="男生宿舍" transform="translate(986 546)" fill="#fff" font-size="24" font-family="HarmonyOS_Sans_SC_Light, HarmonyOS Sans SC"><tspan x="0" y="0">男生宿舍</tspan></text>
    <text id="体育馆" transform="translate(189 224)" fill="#fff" font-size="36" font-family="HarmonyOS_Sans_SC_Medium, HarmonyOS Sans SC"><tspan x="0" y="0">体育馆</tspan></text>
    <text id="田径场" transform="translate(731 323)" fill="#fff" font-size="36" font-family="HarmonyOS_Sans_SC_Medium, HarmonyOS Sans SC"><tspan x="0" y="0">田径场</tspan></text>
    <text id="后门" transform="translate(79 65)" fill="#fff" font-size="16" font-family="HarmonyOS_Sans_SC, HarmonyOS Sans SC"><tspan x="0" y="0">后门</tspan></text>
    <text id="正门" transform="translate(737 1155)" fill="#fff" font-size="16" font-family="HarmonyOS_Sans_SC, HarmonyOS Sans SC"><tspan x="0" y="0">正门</tspan></text>
    <text id="食堂_一楼_" data-name="食堂（一楼）" transform="translate(243 286)" fill="#fff" font-size="24" font-family="HarmonyOS_Sans_SC_Light, HarmonyOS Sans SC"><tspan x="-72" y="0">食堂（一楼）</tspan></text>
  </g>
</svg>
